<mxfile host="app.diagrams.net" modified="2024-05-12T17:30:58.086Z" agent="Mozilla/5.0 (Windows NT 10.0; Win64; x64) AppleWebKit/537.36 (KHTML, like Gecko) Chrome/124.0.0.0 Safari/537.36 Edg/124.0.0.0" etag="6b6tCbW9u5uT9HZo0VnK" version="24.4.0" type="github">
  <diagram name="Page-1" id="ikRIqKkQcMg0QHP1qBo3">
    <mxGraphModel dx="829" dy="481" grid="1" gridSize="10" guides="1" tooltips="1" connect="1" arrows="1" fold="1" page="1" pageScale="1" pageWidth="850" pageHeight="1100" math="0" shadow="0">
      <root>
        <mxCell id="0" />
        <mxCell id="1" parent="0" />
        <mxCell id="II8t_q3Wxh-tq56KlRda-1" value="&lt;b&gt;AWS Cloud&lt;/b&gt;" style="points=[[0,0],[0.25,0],[0.5,0],[0.75,0],[1,0],[1,0.25],[1,0.5],[1,0.75],[1,1],[0.75,1],[0.5,1],[0.25,1],[0,1],[0,0.75],[0,0.5],[0,0.25]];outlineConnect=0;gradientColor=none;html=1;whiteSpace=wrap;fontSize=12;fontStyle=0;container=1;pointerEvents=0;collapsible=0;recursiveResize=0;shape=mxgraph.aws4.group;grIcon=mxgraph.aws4.group_aws_cloud_alt;strokeColor=#232F3E;fillColor=none;verticalAlign=top;align=left;spacingLeft=30;fontColor=#232F3E;dashed=0;" vertex="1" parent="1">
          <mxGeometry x="40" y="40" width="760" height="400" as="geometry" />
        </mxCell>
        <mxCell id="II8t_q3Wxh-tq56KlRda-10" value="&lt;b&gt;VPC - Region 1&lt;/b&gt;" style="points=[[0,0],[0.25,0],[0.5,0],[0.75,0],[1,0],[1,0.25],[1,0.5],[1,0.75],[1,1],[0.75,1],[0.5,1],[0.25,1],[0,1],[0,0.75],[0,0.5],[0,0.25]];outlineConnect=0;gradientColor=none;html=1;whiteSpace=wrap;fontSize=12;fontStyle=0;container=1;pointerEvents=0;collapsible=0;recursiveResize=0;shape=mxgraph.aws4.group;grIcon=mxgraph.aws4.group_vpc2;strokeColor=#8C4FFF;fillColor=none;verticalAlign=top;align=left;spacingLeft=30;fontColor=#000000;dashed=0;" vertex="1" parent="1">
          <mxGeometry x="80" y="80" width="680" height="320" as="geometry" />
        </mxCell>
        <mxCell id="II8t_q3Wxh-tq56KlRda-2" value="Subnet - Availability Zone 1" style="points=[[0,0],[0.25,0],[0.5,0],[0.75,0],[1,0],[1,0.25],[1,0.5],[1,0.75],[1,1],[0.75,1],[0.5,1],[0.25,1],[0,1],[0,0.75],[0,0.5],[0,0.25]];outlineConnect=0;gradientColor=none;html=1;whiteSpace=wrap;fontSize=12;fontStyle=0;container=1;pointerEvents=0;collapsible=0;recursiveResize=0;shape=mxgraph.aws4.group;grIcon=mxgraph.aws4.group_security_group;grStroke=0;strokeColor=#7AA116;fillColor=#F2F6E8;verticalAlign=top;align=left;spacingLeft=30;fontColor=#000000;dashed=0;" vertex="1" parent="II8t_q3Wxh-tq56KlRda-10">
          <mxGeometry x="40" y="40" width="280" height="240" as="geometry" />
        </mxCell>
        <mxCell id="II8t_q3Wxh-tq56KlRda-5" value="Security group - Egress only" style="fillColor=none;strokeColor=#DD3522;verticalAlign=top;fontStyle=0;fontColor=#DD3522;whiteSpace=wrap;html=1;" vertex="1" parent="II8t_q3Wxh-tq56KlRda-2">
          <mxGeometry x="20" y="140" width="240" height="80" as="geometry" />
        </mxCell>
        <mxCell id="II8t_q3Wxh-tq56KlRda-6" value="Security group - Internet access" style="fillColor=none;strokeColor=#DD3522;verticalAlign=top;fontStyle=0;fontColor=#DD3522;whiteSpace=wrap;html=1;" vertex="1" parent="II8t_q3Wxh-tq56KlRda-2">
          <mxGeometry x="20" y="40" width="240" height="80" as="geometry" />
        </mxCell>
        <mxCell id="II8t_q3Wxh-tq56KlRda-15" value="" style="shape=image;verticalLabelPosition=bottom;labelBackgroundColor=default;verticalAlign=top;aspect=fixed;imageAspect=0;image=https://cdn.worldvectorlogo.com/logos/vault-enterprise.svg;" vertex="1" parent="II8t_q3Wxh-tq56KlRda-2">
          <mxGeometry x="100" y="170" width="38.84" height="38" as="geometry" />
        </mxCell>
        <mxCell id="II8t_q3Wxh-tq56KlRda-16" value="" style="shape=image;verticalLabelPosition=bottom;labelBackgroundColor=default;verticalAlign=top;aspect=fixed;imageAspect=0;image=https://upload.wikimedia.org/wikipedia/commons/thumb/2/29/Postgresql_elephant.svg/993px-Postgresql_elephant.svg.png;" vertex="1" parent="II8t_q3Wxh-tq56KlRda-2">
          <mxGeometry x="40" y="170" width="38.79" height="40" as="geometry" />
        </mxCell>
        <mxCell id="II8t_q3Wxh-tq56KlRda-11" value="Subnet - Availability Zone 2" style="points=[[0,0],[0.25,0],[0.5,0],[0.75,0],[1,0],[1,0.25],[1,0.5],[1,0.75],[1,1],[0.75,1],[0.5,1],[0.25,1],[0,1],[0,0.75],[0,0.5],[0,0.25]];outlineConnect=0;gradientColor=none;html=1;whiteSpace=wrap;fontSize=12;fontStyle=0;container=1;pointerEvents=0;collapsible=0;recursiveResize=0;shape=mxgraph.aws4.group;grIcon=mxgraph.aws4.group_security_group;grStroke=0;strokeColor=#7AA116;fillColor=#F2F6E8;verticalAlign=top;align=left;spacingLeft=30;fontColor=#000000;dashed=0;" vertex="1" parent="II8t_q3Wxh-tq56KlRda-10">
          <mxGeometry x="360" y="40" width="280" height="240" as="geometry" />
        </mxCell>
        <mxCell id="II8t_q3Wxh-tq56KlRda-12" value="Security group - Egress only" style="fillColor=none;strokeColor=#DD3522;verticalAlign=top;fontStyle=0;fontColor=#DD3522;whiteSpace=wrap;html=1;" vertex="1" parent="II8t_q3Wxh-tq56KlRda-11">
          <mxGeometry x="20" y="140" width="240" height="80" as="geometry" />
        </mxCell>
        <mxCell id="II8t_q3Wxh-tq56KlRda-13" value="Security group - Internet access" style="fillColor=none;strokeColor=#DD3522;verticalAlign=top;fontStyle=0;fontColor=#DD3522;whiteSpace=wrap;html=1;" vertex="1" parent="II8t_q3Wxh-tq56KlRda-11">
          <mxGeometry x="20" y="40" width="240" height="80" as="geometry" />
        </mxCell>
        <mxCell id="II8t_q3Wxh-tq56KlRda-17" value="" style="shape=image;verticalLabelPosition=bottom;labelBackgroundColor=default;verticalAlign=top;aspect=fixed;imageAspect=0;image=https://cdn.worldvectorlogo.com/logos/vault-enterprise.svg;" vertex="1" parent="II8t_q3Wxh-tq56KlRda-11">
          <mxGeometry x="100" y="170" width="38.84" height="38" as="geometry" />
        </mxCell>
        <mxCell id="II8t_q3Wxh-tq56KlRda-18" value="" style="shape=image;verticalLabelPosition=bottom;labelBackgroundColor=default;verticalAlign=top;aspect=fixed;imageAspect=0;image=https://upload.wikimedia.org/wikipedia/commons/thumb/2/29/Postgresql_elephant.svg/993px-Postgresql_elephant.svg.png;" vertex="1" parent="II8t_q3Wxh-tq56KlRda-11">
          <mxGeometry x="40" y="170" width="38.79" height="40" as="geometry" />
        </mxCell>
      </root>
    </mxGraphModel>
  </diagram>
</mxfile>
